<svg xmlns="http://www.w3.org/2000/svg" width="72" height="72" viewBox="0 0 72 72">
    <defs>
        <clipPath id="dr3s1jg65a">
            <path data-name="사각형 3501" style="fill:none" d="M0 0h72v72H0z"/>
        </clipPath>
    </defs>
    <g style="clip-path:url(#dr3s1jg65a)">
        <path data-name="패스 83746" d="M72 36a36 36 0 1 0-60.711 26.136 26.4 26.4 0 0 1 6.77-3.575c1.868-.7 3.762-1.347 5.627-2.055a14.035 14.035 0 0 0 2.972-1.494 3.873 3.873 0 0 0 1.754-3.312c.026-1.363.013-2.727 0-4.09a.872.872 0 0 0-.174-.462 16.948 16.948 0 0 1-2.687-4.532 23.528 23.528 0 0 1-.623-3.326c-.069-.4-.052-.809-.108-1.209a.568.568 0 0 0-.223-.344 5.043 5.043 0 0 1-1.845-2 10.756 10.756 0 0 1-.6-2.192 13.167 13.167 0 0 1-.174-2.124c-.01-.9.279-1.412 1.419-1.481-.151-.665-.331-1.324-.449-1.992a12.093 12.093 0 0 1 .632-7.085 10.625 10.625 0 0 1 4.378-4.834A11.79 11.79 0 0 1 34.3 14.3a25.414 25.414 0 0 1 5.768.534 5.076 5.076 0 0 1 .882.269 5.328 5.328 0 0 0 1.819.39 6.1 6.1 0 0 1 5.158 3.451 11.951 11.951 0 0 1 1.334 5.174A17.165 17.165 0 0 1 48.7 29.7a1.953 1.953 0 0 0-.033.236c.108.01.206.016.3.033a1.173 1.173 0 0 1 1.041 1.231 11.311 11.311 0 0 1-.639 4.277 4.544 4.544 0 0 1-1.838 2.133.87.87 0 0 0-.4.734 14.549 14.549 0 0 1-.777 4.522 15.409 15.409 0 0 1-1.275 2.35c-.423.685-.931 1.324-1.386 1.992a.676.676 0 0 0-.111.377c.013 1.573.01 3.146.069 4.716a3.3 3.3 0 0 0 1.449 2.537 14.426 14.426 0 0 0 3.936 1.933c1.76.636 3.539 1.226 5.273 1.92a26.127 26.127 0 0 1 6.4 3.447A35.862 35.862 0 0 0 72 36" transform="translate(0 -.001)" style="fill:#fff"/>
        <path data-name="패스 83747" d="M41.193 46.837a14.342 14.342 0 0 1-3.935-1.937 3.285 3.285 0 0 1-1.452-2.533c-.059-1.57-.056-3.139-.069-4.712a.668.668 0 0 1 .111-.377c.456-.669.963-1.308 1.386-2a15.377 15.377 0 0 0 1.275-2.346 14.549 14.549 0 0 0 .777-4.522.865.865 0 0 1 .4-.734 4.537 4.537 0 0 0 1.838-2.137 11.285 11.285 0 0 0 .639-4.273 1.17 1.17 0 0 0-1.029-1.239c-.1-.016-.2-.023-.308-.036.013-.088.016-.164.033-.236a17.145 17.145 0 0 0 .557-5.578A11.977 11.977 0 0 0 40.082 9a6.091 6.091 0 0 0-5.158-3.447 5.255 5.255 0 0 1-1.819-.393 5.367 5.367 0 0 0-.882-.265 25.414 25.414 0 0 0-5.768-.534 11.761 11.761 0 0 0-6.344 1.73 10.609 10.609 0 0 0-4.378 4.834 12.093 12.093 0 0 0-.632 7.085c.118.669.3 1.324.449 1.992-1.14.066-1.429.577-1.419 1.478a13.176 13.176 0 0 0 .174 2.127 10.756 10.756 0 0 0 .6 2.192 5.043 5.043 0 0 0 1.845 2 .57.57 0 0 1 .223.341c.056.4.039.813.108 1.213a23.4 23.4 0 0 0 .623 3.323 16.948 16.948 0 0 0 2.687 4.532.892.892 0 0 1 .174.462c.013 1.363.026 2.727 0 4.09a3.865 3.865 0 0 1-1.753 3.313 13.881 13.881 0 0 1-2.972 1.494c-1.865.711-3.759 1.35-5.627 2.058A26.4 26.4 0 0 0 3.445 52.2a35.88 35.88 0 0 0 49.418 0 26.349 26.349 0 0 0-6.4-3.447c-1.734-.695-3.513-1.281-5.273-1.917" transform="translate(7.844 9.934)" style="fill:#ebeaea"/>
    </g>
    <g data-name="타원 54" style="stroke:#e1e1e1;fill:none">
        <circle cx="36" cy="36" r="36" style="stroke:none"/>
        <circle cx="36" cy="36" r="35.5" style="fill:none"/>
    </g>
</svg>
